<?xml version="1.0" encoding="UTF-8"?><svg id="Ebene_2" xmlns="http://www.w3.org/2000/svg" viewBox="0 0 917 238.87"><defs><style>.cls-1{fill:#396;}.cls-2{fill:#0d2619;}.cls-3{fill:#092618;}</style></defs><g id="Ebene_1-2"><g><g><path class="cls-1" d="m62.93.31c-15.71,1.68-31.67,10.06-42.29,22.26C9.1,35.79,2.7,51.29.36,71.37c-2.08,18.25,5.08,43.46,18,62.88l3.61,5.49h29.59l11.44-25.21c6.25-13.83,11.95-25.72,12.61-26.43,1.63-1.63,4.73-1.68,6.3-.05.71.66,6.1,13.47,13.78,32.63,6.91,17.33,12.66,31.57,12.71,31.62.05.1,4.32-7.47,9.51-16.72,5.13-9.3,9.86-17.54,10.52-18.3.97-1.17,1.63-1.42,3.35-1.42,2.75,0,3.2.51,8.18,8.79,2.13,3.61,4.01,6.46,4.12,6.3.1-.1,3.86-17.64,8.34-39.04,4.47-21.35,8.39-39.6,8.69-40.46,1.07-3.41,4.88-4.27,7.52-1.83l1.53,1.42,7.01,44.32,6.97,44.38h51.08l3.46-5.23c12.76-19.26,19.93-44.12,18.04-62.78-2.95-29.43-17.59-53.02-40.06-64.5-10.11-5.18-17.74-6.96-29.43-6.96-14.38-.05-26.02,3.46-38.02,11.39-4.63,3.1-12.45,10.42-16.27,15.2-3.15,4.01-3.25,4.12-5.29,4.12-1.37,0-1.98-.46-4.07-3.15-9.61-12.5-19.88-20.08-33.34-24.55C82.09.56,71.37-.61,62.93.31Z"/><path class="cls-3" d="m164.64,80.47c-.25,2.54-14.03,66.33-14.44,66.9-1.58,1.98-4.32,2.69-6.4,1.53-.51-.25-3.3-4.47-6.2-9.35-2.9-4.93-5.44-8.95-5.64-8.95-.15,0-4.83,8.08-10.32,18-5.49,9.91-10.47,18.4-11.03,18.91-1.32,1.22-4.57,1.22-5.95,0-.56-.51-6.2-13.98-13.32-31.72-6.76-16.98-12.45-31.01-12.66-31.26-.15-.2-4.78,9.35-10.17,21.25-5.44,11.9-10.32,22.01-10.83,22.52-.87.76-2.54.86-14.13,1.02l-13.16.15.87,1.27c.51.71,21.86,20.28,47.43,43.51,25.57,23.23,47.12,42.8,47.83,43.46l1.27,1.17,46.26-41.17c25.42-22.67,47.68-42.75,49.51-44.63l3.3-3.41-24.45-.25c-23.08-.25-24.55-.3-25.57-1.22-.56-.51-1.17-1.32-1.32-1.78-.1-.46-2.54-15.35-5.34-33.09-4.68-29.69-5.44-34.11-5.54-32.84Z"/></g><g><path class="cls-2" d="m302.7,169.5v-99.68l67.76,70.98v-64.68h14.28v99.12l-67.76-70.98v65.24h-14.28Z"/><path class="cls-2" d="m418.33,110.56v33.74c0,3.5.14,7.56,2.52,10.64,1.82,2.38,5.04,4.06,8.96,4.06s7.14-1.68,8.96-4.06c2.38-3.08,2.52-7.14,2.52-10.64v-33.74h13.72v34.16c0,7.56-.84,13.86-6.3,19.32s-12.6,7.28-19.18,7.28c-6.02,0-13.3-1.82-18.62-7.28-5.46-5.46-6.3-11.76-6.3-19.32v-34.16h13.72Z"/><path class="cls-2" d="m486.51,123.16v46.34h-13.72v-46.34h-5.74v-12.6h5.74v-21.56h13.72v21.56h10.5v12.6h-10.5Z"/><path class="cls-2" d="m506.25,110.56h13.72v5.32c1.54-1.82,3.78-3.78,5.74-4.9,2.66-1.54,5.32-1.96,8.4-1.96,3.36,0,7,.56,10.78,2.8l-5.6,12.46c-3.08-1.96-5.6-2.1-7-2.1-2.94,0-5.88.42-8.54,3.22-3.78,4.06-3.78,9.66-3.78,13.58v30.52h-13.72v-58.94Z"/><path class="cls-1" d="m559.59,77.38c5.04,0,8.82,3.78,8.82,8.82s-3.78,8.82-8.82,8.82-8.82-3.78-8.82-8.82,3.78-8.82,8.82-8.82Z"/><rect class="cls-2" x="552.73" y="110.56" width="13.72" height="58.94"/><path class="cls-2" d="m659.26,96.84c-.84-2.1-2.1-4.06-4.2-5.88-2.94-2.38-6.02-3.36-10.08-3.36-8.68,0-13.16,5.18-13.16,11.2,0,2.8.98,7.7,10.08,11.34l9.38,3.78c17.22,7,21.98,16.8,21.98,27.44,0,17.78-12.6,29.96-30.1,29.96-10.78,0-17.22-4.06-21.98-9.38-5.04-5.6-7.28-11.76-7.84-18.2l14.14-3.08c0,4.62,1.68,8.96,3.92,11.9,2.66,3.36,6.58,5.6,12.18,5.6,8.68,0,15.4-6.3,15.4-15.68s-7.28-13.44-13.44-15.96l-8.96-3.78c-7.7-3.22-19.04-9.66-19.04-23.66,0-12.6,9.8-24.64,27.3-24.64,10.08,0,15.82,3.78,18.76,6.3,2.52,2.24,5.18,5.46,7.14,9.38l-11.48,6.72Z"/><path class="cls-2" d="m734.3,128.62c-6.3-6.16-12.46-7.28-16.66-7.28-6.44,0-10.5,2.66-13.02,5.18-2.52,2.52-5.04,7-5.04,13.58s2.66,11.48,5.32,14.14c3.08,2.94,7.42,4.76,12.46,4.76,5.6,0,12.18-2.24,16.94-7.56v15.26c-3.36,2.1-8.82,4.62-17.92,4.62-9.8,0-16.8-2.8-22.4-8.68-4.2-4.34-8.4-11.34-8.4-22.12s4.62-18.48,8.96-22.82c4.62-4.62,12.04-8.68,23.66-8.68,4.48,0,9.8.7,16.1,4.2v15.4Z"/><path class="cls-2" d="m807.38,140.1c0,18.06-13.72,31.22-31.5,31.22s-31.5-13.16-31.5-31.22,13.72-31.08,31.5-31.08,31.5,12.88,31.5,31.08Zm-14,.14c0-13.44-8.82-18.9-17.5-18.9s-17.5,5.46-17.5,18.9c0,11.34,6.72,18.76,17.5,18.76s17.5-7.42,17.5-18.76Z"/><path class="cls-2" d="m821.66,110.56h13.72v5.32c1.54-1.82,3.78-3.78,5.74-4.9,2.66-1.54,5.32-1.96,8.4-1.96,3.36,0,7,.56,10.78,2.8l-5.6,12.46c-3.08-1.96-5.6-2.1-7-2.1-2.94,0-5.88.42-8.54,3.22-3.78,4.06-3.78,9.66-3.78,13.58v30.52h-13.72v-58.94Z"/><path class="cls-2" d="m916.58,156.06c-2.52,4.48-6.16,8.4-9.94,10.78-4.76,3.08-11.06,4.48-17.36,4.48-7.84,0-14.28-1.96-19.88-7.56-5.6-5.6-8.68-13.72-8.68-22.54s3.22-17.92,9.38-24.22c4.9-4.9,11.34-7.98,19.74-7.98,9.38,0,15.4,4.06,18.9,7.7,7.56,7.84,8.26,18.76,8.26,24.92v1.68h-42.28c.28,4.2,2.1,8.96,5.04,11.9,3.22,3.22,7.14,3.78,10.5,3.78,3.78,0,6.58-.84,9.38-2.94,2.38-1.82,4.2-4.2,5.46-6.44l11.48,6.44Zm-13.58-23.94c-.56-3.22-2.1-6.02-4.2-7.98-1.82-1.68-4.76-3.36-9.24-3.36-4.76,0-7.84,1.96-9.66,3.78-1.96,1.82-3.5,4.62-4.2,7.56h27.3Z"/></g></g></g></svg>